<?xml version="1.0" encoding="utf-8"?>
<!-- Generator: Adobe Illustrator 16.0.0, SVG Export Plug-In . SVG Version: 6.00 Build 0)  -->
<!DOCTYPE svg PUBLIC "-//W3C//DTD SVG 1.1//EN" "http://www.w3.org/Graphics/SVG/1.1/DTD/svg11.dtd">
<svg version="1.1" xmlns="http://www.w3.org/2000/svg" xmlns:xlink="http://www.w3.org/1999/xlink" x="0px" y="0px" width="856px"
	 height="341.009px" viewBox="0 0 856 341.009" enable-background="new 0 0 856 341.009" xml:space="preserve">
<g id="Layer_2" display="none">
	<rect x="-0.5" y="0.5" display="inline" stroke="#FFFFFF" stroke-miterlimit="10" width="1000" height="1000"/>
</g>
<g id="Layer_1">
	<g>
		<radialGradient id="SVGID_1_" cx="434.6255" cy="48.04" r="63.8174" gradientUnits="userSpaceOnUse">
			<stop  offset="0" style="stop-color:#FFFFFF"/>
			<stop  offset="0.0739" style="stop-color:#FFFFFF"/>
			<stop  offset="0.1573" style="stop-color:#E3F4FC"/>
			<stop  offset="0.3082" style="stop-color:#ECF7FD;stop-opacity:0.807"/>
			<stop  offset="0.6495" style="stop-color:#FAFDFE;stop-opacity:0.3704"/>
			<stop  offset="0.939" style="stop-color:#FFFFFF;stop-opacity:0"/>
		</radialGradient>
		<path fill="url(#SVGID_1_)" d="M498.443,48.04c-59.397,0.538-59.493,1.054-3.931,22.098c-55.962-19.963-56.313-19.42-14.75,23.018
			c-42.339-41.663-42.719-41.385-16.263,11.81c-27.475-52.677-28.154-52.505-28.876,6.891c-1.038-59.396-1.994-59.755-39.716-13.862
			c36.471-46.89,36.062-47.39-17.252-21.166c52.721-27.395,52.55-28.072-6.848-28.79c59.397-1.049,59.763-2.013,14.092-40.005
			c46.585,36.856,46.95,36.53,15.59-13.925c32.455,49.761,33.266,49.509,34.134-9.887c0.847,59.396,1.636,59.633,33.282,9.352
			c-30.453,51.012-30.003,51.436,19.062,17.947C438.752,46.227,439.046,47.099,498.443,48.04z"/>
	</g>
	<g>
		<radialGradient id="SVGID_2_" cx="348.6104" cy="109.8413" r="38.7454" gradientUnits="userSpaceOnUse">
			<stop  offset="0" style="stop-color:#FFFFFF"/>
			<stop  offset="0.0739" style="stop-color:#FFFFFF"/>
			<stop  offset="0.1573" style="stop-color:#E3F4FC"/>
			<stop  offset="0.3082" style="stop-color:#ECF7FD;stop-opacity:0.807"/>
			<stop  offset="0.6495" style="stop-color:#FAFDFE;stop-opacity:0.3704"/>
			<stop  offset="0.939" style="stop-color:#FFFFFF;stop-opacity:0"/>
		</radialGradient>
		<path fill="url(#SVGID_2_)" d="M387.356,109.841c-36.062,0.326-36.12,0.64-2.386,13.417c-33.977-12.12-34.19-11.791-8.956,13.975
			c-25.705-25.294-25.935-25.126-9.874,7.17c-16.68-31.982-17.093-31.877-17.531,4.184c-0.63-36.062-1.211-36.279-24.114-8.416
			c22.143-28.468,21.895-28.772-10.474-12.85c32.009-16.633,31.905-17.044-4.157-17.479c36.062-0.637,36.284-1.223,8.556-24.289
			c28.283,22.377,28.505,22.179,9.464-8.453c19.705,30.21,20.197,30.058,20.725-6.003c0.514,36.061,0.993,36.205,20.206,5.678
			c-18.488,30.97-18.215,31.228,11.573,10.895C351.116,108.74,351.294,109.27,387.356,109.841z"/>
	</g>
	<g>
		<radialGradient id="SVGID_3_" cx="440.0889" cy="131.9624" r="22.032" gradientUnits="userSpaceOnUse">
			<stop  offset="0" style="stop-color:#FFFFFF"/>
			<stop  offset="0.0739" style="stop-color:#FFFFFF"/>
			<stop  offset="0.1573" style="stop-color:#E3F4FC"/>
			<stop  offset="0.3082" style="stop-color:#ECF7FD;stop-opacity:0.807"/>
			<stop  offset="0.6495" style="stop-color:#FAFDFE;stop-opacity:0.3704"/>
			<stop  offset="0.939" style="stop-color:#FFFFFF;stop-opacity:0"/>
		</radialGradient>
		<path fill="url(#SVGID_3_)" d="M462.122,131.962c-20.506,0.186-20.54,0.364-1.357,7.63c-19.32-6.893-19.442-6.706-5.093,7.946
			c-14.616-14.384-14.748-14.288-5.615,4.076c-9.484-18.185-9.719-18.125-9.968,2.379c-0.359-20.505-0.689-20.629-13.713-4.785
			c12.592-16.188,12.451-16.36-5.955-7.307c18.201-9.458,18.142-9.691-2.365-9.939c20.506-0.362,20.632-0.695,4.865-13.812
			c16.083,12.725,16.209,12.612,5.382-4.806c11.205,17.179,11.484,17.092,11.785-3.413c0.292,20.505,0.564,20.587,11.489,3.228
			c-10.513,17.611-10.357,17.757,6.581,6.196C441.514,131.336,441.615,131.638,462.122,131.962z"/>
	</g>
	<g>
		<path fill="#807F7F" d="M25.001,159.324l32.296,117.041L49.18,174.157l16.067-2.813l27.837,98.754L84.89,148.833l9.981-1.749
			l12.868,185.183l-12.904,2.26l-32.16-110.542l9.033,114.593l-13.877,2.431L6.986,162.479L25.001,159.324z"/>
	</g>
	<g>
		<path fill="#807F7F" d="M121.905,185.005l32.123,94.158l-9.034,1.882l-5.901-17.352l-15.485,3.223l1.125,18.346l-5.292,1.102
			l-9.409-98.889L121.905,185.005z M116.914,201.125l5.904,60.705l14.455-3.009l-19.456-57.885L116.914,201.125z"/>
	</g>
	<g>
		<path fill="#807F7F" d="M177.04,174.553l17.959,96.813l-4.925,0.916l-37.512-64.901l12.887,69.469l-5.055,0.935l-17.958-96.814
			l5.054-0.937l37.262,64.277l-12.767-68.821L177.04,174.553z"/>
	</g>
	<g>
		<path fill="#807F7F" d="M222.805,166.981l15.833,97.188l-4.944,0.803l-36.081-65.705L208.975,269l-5.074,0.828l-15.833-97.187
			l5.074-0.826l35.845,65.078l-11.256-69.084L222.805,166.981z"/>
	</g>
	<g>
		<path fill="#807F7F" d="M253.933,162.329l26.088,96.008l-9.135,1.304l-4.788-17.691l-15.659,2.236l-0.039,18.379l-5.35,0.765
			l-3.123-99.287L253.933,162.329z M247.928,178.1l2.045,60.958l14.615-2.087l-15.747-59.001L247.928,178.1z"/>
	</g>
	<g>
		<path fill="#807F7F" d="M286.578,257.472l-6.775-54.813l0.13-0.017l-5.353-43.302l13.999-1.73c3.226-0.399,6.093-0.487,8.6-0.266
			c2.505,0.221,4.646,0.885,6.424,1.995c1.774,1.109,3.189,2.706,4.243,4.788c1.056,2.083,1.793,4.826,2.214,8.228l1.26,10.203
			c1.596,11.491-0.674,17.838-6.811,19.039c1.329,0.014,2.636,0.205,3.923,0.578c1.285,0.373,2.499,1.063,3.643,2.072
			c1.143,1.012,2.118,2.461,2.929,4.354c0.809,1.892,1.408,4.407,1.795,7.547l2.476,20.017c0.527,4.273,0.347,7.639-0.548,10.094
			c-0.892,2.458-2.168,4.32-3.825,5.587c-1.66,1.269-3.522,2.119-5.594,2.552c-2.073,0.432-4.069,0.768-5.987,1.004L286.578,257.472
			z M295.453,200.325c1.917-0.237,3.378-0.771,4.383-1.604c1.004-0.833,1.68-2.156,2.034-3.97c0.35-1.814,0.411-4.189,0.181-7.129
			c-0.23-2.938-0.625-6.674-1.186-11.209c-0.269-2.179-0.568-4.224-0.891-6.132c-0.325-1.908-0.811-3.507-1.457-4.801
			c-0.648-1.292-1.521-2.269-2.62-2.93c-1.101-0.661-2.566-0.878-4.397-0.652l-6.28,0.776l4.737,38.33L295.453,200.325z
			 M290.442,205.992l5.644,45.656l6.801-0.84c5.407-0.668,7.616-5.014,6.624-13.038l-2.118-18.202
			c-0.225-1.832-0.475-3.659-0.744-5.486c-0.273-1.826-0.738-3.449-1.401-4.874c-0.662-1.422-1.596-2.526-2.798-3.308
			c-1.206-0.781-2.897-1.036-5.075-0.767L290.442,205.992z"/>
	</g>
	<g>
		<path fill="#807F7F" d="M318.469,154.302l26.477-2.83l0.547,5.112l-16.253,1.737l4.062,38.01l15.073-1.61l0.533,4.98
			l-15.074,1.611l4.921,44.812l15.991-1.709l0.532,4.981l-26.213,2.8L318.469,154.302z"/>
	</g>
	<g>
		<linearGradient id="SVGID_4_" gradientUnits="userSpaceOnUse" x1="52.3765" y1="336.9038" x2="52.3765" y2="142.9785">
			<stop  offset="0" style="stop-color:#48ACE1"/>
			<stop  offset="0.0402" style="stop-color:#59B4E4"/>
			<stop  offset="0.1542" style="stop-color:#85C8EB"/>
			<stop  offset="0.2736" style="stop-color:#ABD9F1"/>
			<stop  offset="0.397" style="stop-color:#C9E7F6"/>
			<stop  offset="0.526" style="stop-color:#E1F1FA"/>
			<stop  offset="0.6627" style="stop-color:#F2F9FD"/>
			<stop  offset="0.8124" style="stop-color:#FCFEFE"/>
			<stop  offset="1" style="stop-color:#FFFFFF"/>
		</linearGradient>
		<path fill="url(#SVGID_4_)" d="M20.015,155.218L52.311,272.26l-8.117-102.208l16.067-2.813l27.837,98.753l-8.194-121.264
			l9.982-1.75l12.867,185.183l-12.904,2.262L57.688,219.88l9.033,114.594l-13.877,2.43L2,158.375L20.015,155.218z"/>
	</g>
	<g>
		
			<linearGradient id="SVGID_5_" gradientUnits="userSpaceOnUse" x1="125.4551" y1="274.7856" x2="125.4551" y2="173.8091" gradientTransform="matrix(0.9978 -0.0659 0.0659 0.9978 -13.084 15.623)">
			<stop  offset="0" style="stop-color:#48ACE1"/>
			<stop  offset="0.0402" style="stop-color:#59B4E4"/>
			<stop  offset="0.1542" style="stop-color:#85C8EB"/>
			<stop  offset="0.2736" style="stop-color:#ABD9F1"/>
			<stop  offset="0.397" style="stop-color:#C9E7F6"/>
			<stop  offset="0.526" style="stop-color:#E1F1FA"/>
			<stop  offset="0.6627" style="stop-color:#F2F9FD"/>
			<stop  offset="0.8124" style="stop-color:#FCFEFE"/>
			<stop  offset="1" style="stop-color:#FFFFFF"/>
		</linearGradient>
		<path fill="url(#SVGID_5_)" d="M116.659,181.237l32.123,94.161l-9.034,1.881l-5.9-17.354l-15.486,3.224l1.125,18.346l-5.291,1.102
			l-9.41-98.888L116.659,181.237z M111.668,197.356l5.903,60.707l14.454-3.009l-19.455-57.886L111.668,197.356z"/>
	</g>
	<g>
		
			<linearGradient id="SVGID_6_" gradientUnits="userSpaceOnUse" x1="162.5327" y1="268.9282" x2="162.5327" y2="167.0161" gradientTransform="matrix(0.9978 -0.0659 0.0659 0.9978 -13.084 15.623)">
			<stop  offset="0" style="stop-color:#48ACE1"/>
			<stop  offset="0.0402" style="stop-color:#59B4E4"/>
			<stop  offset="0.1542" style="stop-color:#85C8EB"/>
			<stop  offset="0.2736" style="stop-color:#ABD9F1"/>
			<stop  offset="0.397" style="stop-color:#C9E7F6"/>
			<stop  offset="0.526" style="stop-color:#E1F1FA"/>
			<stop  offset="0.6627" style="stop-color:#F2F9FD"/>
			<stop  offset="0.8124" style="stop-color:#FCFEFE"/>
			<stop  offset="1" style="stop-color:#FFFFFF"/>
		</linearGradient>
		<path fill="url(#SVGID_6_)" d="M171.793,170.785l17.959,96.815l-4.925,0.915l-37.512-64.901l12.887,69.468l-5.054,0.937
			l-17.959-96.814l5.055-0.938l37.261,64.277l-12.767-68.821L171.793,170.785z"/>
	</g>
	<g>
		
			<linearGradient id="SVGID_7_" gradientUnits="userSpaceOnUse" x1="207.584" y1="263.856" x2="207.584" y2="162.481" gradientTransform="matrix(0.9978 -0.0659 0.0659 0.9978 -13.084 15.623)">
			<stop  offset="0" style="stop-color:#48ACE1"/>
			<stop  offset="0.0402" style="stop-color:#59B4E4"/>
			<stop  offset="0.1542" style="stop-color:#85C8EB"/>
			<stop  offset="0.2736" style="stop-color:#ABD9F1"/>
			<stop  offset="0.397" style="stop-color:#C9E7F6"/>
			<stop  offset="0.526" style="stop-color:#E1F1FA"/>
			<stop  offset="0.6627" style="stop-color:#F2F9FD"/>
			<stop  offset="0.8124" style="stop-color:#FCFEFE"/>
			<stop  offset="1" style="stop-color:#FFFFFF"/>
		</linearGradient>
		<path fill="url(#SVGID_7_)" d="M217.558,163.215l15.834,97.186l-4.944,0.806l-36.081-65.708l11.362,69.734l-5.074,0.828
			l-15.833-97.186l5.074-0.827l35.843,65.077l-11.255-69.084L217.558,163.215z"/>
	</g>
	<g>
		
			<linearGradient id="SVGID_8_" gradientUnits="userSpaceOnUse" x1="253.8618" y1="260.0845" x2="253.8618" y2="159.8911" gradientTransform="matrix(0.9978 -0.0659 0.0659 0.9978 -13.084 15.623)">
			<stop  offset="0" style="stop-color:#48ACE1"/>
			<stop  offset="0.0402" style="stop-color:#59B4E4"/>
			<stop  offset="0.1542" style="stop-color:#85C8EB"/>
			<stop  offset="0.2736" style="stop-color:#ABD9F1"/>
			<stop  offset="0.397" style="stop-color:#C9E7F6"/>
			<stop  offset="0.526" style="stop-color:#E1F1FA"/>
			<stop  offset="0.6627" style="stop-color:#F2F9FD"/>
			<stop  offset="0.8124" style="stop-color:#FCFEFE"/>
			<stop  offset="1" style="stop-color:#FFFFFF"/>
		</linearGradient>
		<path fill="url(#SVGID_8_)" d="M248.687,158.562l26.088,96.007l-9.135,1.304l-4.788-17.691l-15.659,2.235l-0.039,18.381
			l-5.35,0.763l-3.123-99.285L248.687,158.562z M242.682,174.333l2.045,60.958l14.615-2.086l-15.747-59.002L242.682,174.333z"/>
	</g>
	<g>
		
			<linearGradient id="SVGID_9_" gradientUnits="userSpaceOnUse" x1="292.3735" y1="256.979" x2="292.3735" y2="157.3765" gradientTransform="matrix(0.9978 -0.0659 0.0659 0.9978 -13.084 15.623)">
			<stop  offset="0" style="stop-color:#48ACE1"/>
			<stop  offset="0.0402" style="stop-color:#59B4E4"/>
			<stop  offset="0.1542" style="stop-color:#85C8EB"/>
			<stop  offset="0.2736" style="stop-color:#ABD9F1"/>
			<stop  offset="0.397" style="stop-color:#C9E7F6"/>
			<stop  offset="0.526" style="stop-color:#E1F1FA"/>
			<stop  offset="0.6627" style="stop-color:#F2F9FD"/>
			<stop  offset="0.8124" style="stop-color:#FCFEFE"/>
			<stop  offset="1" style="stop-color:#FFFFFF"/>
		</linearGradient>
		<path fill="url(#SVGID_9_)" d="M281.332,253.705l-6.775-54.813l0.131-0.017l-5.354-43.302l13.999-1.729
			c3.226-0.399,6.094-0.487,8.6-0.267c2.505,0.221,4.647,0.887,6.424,1.995c1.774,1.109,3.189,2.707,4.244,4.788
			c1.055,2.084,1.791,4.826,2.213,8.228l1.26,10.203c1.596,11.491-0.674,17.838-6.811,19.038c1.329,0.015,2.636,0.206,3.924,0.579
			c1.285,0.373,2.499,1.065,3.643,2.073c1.143,1.011,2.118,2.461,2.929,4.354c0.809,1.892,1.408,4.408,1.795,7.548l2.475,20.016
			c0.528,4.273,0.347,7.64-0.547,10.094c-0.891,2.458-2.168,4.319-3.824,5.587c-1.66,1.268-3.524,2.119-5.595,2.551
			c-2.073,0.432-4.069,0.769-5.985,1.006L281.332,253.705z M290.207,196.557c1.917-0.236,3.378-0.77,4.383-1.605
			c1.004-0.831,1.68-2.153,2.034-3.969c0.35-1.814,0.413-4.189,0.181-7.128c-0.229-2.938-0.625-6.674-1.186-11.209
			c-0.269-2.18-0.568-4.224-0.891-6.132c-0.325-1.906-0.811-3.507-1.457-4.801c-0.648-1.292-1.521-2.269-2.62-2.93
			c-1.101-0.662-2.566-0.878-4.397-0.652l-6.28,0.776l4.737,38.33L290.207,196.557z M285.196,202.224l5.644,45.657l6.801-0.841
			c5.407-0.668,7.615-5.013,6.624-13.038l-2.118-18.199c-0.225-1.833-0.476-3.661-0.744-5.487c-0.272-1.826-0.738-3.449-1.4-4.874
			c-0.664-1.422-1.597-2.526-2.799-3.307c-1.206-0.781-2.897-1.036-5.075-0.767L285.196,202.224z"/>
	</g>
	<g>
		
			<linearGradient id="SVGID_10_" gradientUnits="userSpaceOnUse" x1="331.9272" y1="254.5181" x2="331.9272" y2="155.0591" gradientTransform="matrix(0.9978 -0.0659 0.0659 0.9978 -13.084 15.623)">
			<stop  offset="0" style="stop-color:#48ACE1"/>
			<stop  offset="0.0402" style="stop-color:#59B4E4"/>
			<stop  offset="0.1542" style="stop-color:#85C8EB"/>
			<stop  offset="0.2736" style="stop-color:#ABD9F1"/>
			<stop  offset="0.397" style="stop-color:#C9E7F6"/>
			<stop  offset="0.526" style="stop-color:#E1F1FA"/>
			<stop  offset="0.6627" style="stop-color:#F2F9FD"/>
			<stop  offset="0.8124" style="stop-color:#FCFEFE"/>
			<stop  offset="1" style="stop-color:#FFFFFF"/>
		</linearGradient>
		<path fill="url(#SVGID_10_)" d="M313.224,150.534l26.475-2.829l0.548,5.112l-16.253,1.736l4.062,38.012l15.073-1.611l0.533,4.98
			l-15.074,1.611l4.921,44.812l15.991-1.709l0.532,4.981l-26.213,2.801L313.224,150.534z"/>
	</g>
	<g>
		<linearGradient id="SVGID_11_" gradientUnits="userSpaceOnUse" x1="443.1284" y1="245.0615" x2="443.1284" y2="145.8384">
			<stop  offset="0" style="stop-color:#48ACE1"/>
			<stop  offset="0.0402" style="stop-color:#59B4E4"/>
			<stop  offset="0.1542" style="stop-color:#85C8EB"/>
			<stop  offset="0.2736" style="stop-color:#ABD9F1"/>
			<stop  offset="0.397" style="stop-color:#C9E7F6"/>
			<stop  offset="0.526" style="stop-color:#E1F1FA"/>
			<stop  offset="0.6627" style="stop-color:#F2F9FD"/>
			<stop  offset="0.8124" style="stop-color:#FCFEFE"/>
			<stop  offset="1" style="stop-color:#FFFFFF"/>
		</linearGradient>
		<path fill="url(#SVGID_11_)" d="M440.316,145.838l10.14,0.462l-4.516,98.761l-10.14-0.464L440.316,145.838z"/>
	</g>
	<g>
		<linearGradient id="SVGID_12_" gradientUnits="userSpaceOnUse" x1="478.1987" y1="247.9189" x2="478.1987" y2="146.4482">
			<stop  offset="0" style="stop-color:#48ACE1"/>
			<stop  offset="0.0402" style="stop-color:#59B4E4"/>
			<stop  offset="0.1542" style="stop-color:#85C8EB"/>
			<stop  offset="0.2736" style="stop-color:#ABD9F1"/>
			<stop  offset="0.397" style="stop-color:#C9E7F6"/>
			<stop  offset="0.526" style="stop-color:#E1F1FA"/>
			<stop  offset="0.6627" style="stop-color:#F2F9FD"/>
			<stop  offset="0.8124" style="stop-color:#FCFEFE"/>
			<stop  offset="1" style="stop-color:#FFFFFF"/>
		</linearGradient>
		<path fill="url(#SVGID_12_)" d="M460.423,146.448l10,0.608l6.68,66.04l14.751-64.473l10.131,0.616l-6.002,98.68l-10.131-0.616
			l4.098-67.365l-11.159,48.843l-10.131-0.616l-5.025-49.828l-4.089,67.234l-5.132-0.313L460.423,146.448z"/>
	</g>
	<g>
		<linearGradient id="SVGID_13_" gradientUnits="userSpaceOnUse" x1="519.2363" y1="251.0605" x2="519.2363" y2="150.687">
			<stop  offset="0" style="stop-color:#48ACE1"/>
			<stop  offset="0.0402" style="stop-color:#59B4E4"/>
			<stop  offset="0.1542" style="stop-color:#85C8EB"/>
			<stop  offset="0.2736" style="stop-color:#ABD9F1"/>
			<stop  offset="0.397" style="stop-color:#C9E7F6"/>
			<stop  offset="0.526" style="stop-color:#E1F1FA"/>
			<stop  offset="0.6627" style="stop-color:#F2F9FD"/>
			<stop  offset="0.8124" style="stop-color:#FCFEFE"/>
			<stop  offset="1" style="stop-color:#FFFFFF"/>
		</linearGradient>
		<path fill="url(#SVGID_13_)" d="M532.572,151.664l4.27,99.397l-9.197-0.743l-0.77-18.312l-15.766-1.274l-4.092,17.919
			l-5.388-0.435l18.854-97.529L532.572,151.664z M523.238,165.721l-11.451,59.909l14.715,1.188l-2.346-61.023L523.238,165.721z"/>
	</g>
	<g>
		<linearGradient id="SVGID_14_" gradientUnits="userSpaceOnUse" x1="565.8398" y1="254.936" x2="565.8398" y2="153.8765">
			<stop  offset="0" style="stop-color:#48ACE1"/>
			<stop  offset="0.0402" style="stop-color:#59B4E4"/>
			<stop  offset="0.1542" style="stop-color:#85C8EB"/>
			<stop  offset="0.2736" style="stop-color:#ABD9F1"/>
			<stop  offset="0.397" style="stop-color:#C9E7F6"/>
			<stop  offset="0.526" style="stop-color:#E1F1FA"/>
			<stop  offset="0.6627" style="stop-color:#F2F9FD"/>
			<stop  offset="0.8124" style="stop-color:#FCFEFE"/>
			<stop  offset="1" style="stop-color:#FFFFFF"/>
		</linearGradient>
		<path fill="url(#SVGID_14_)" d="M564.83,198.042l19.018,1.916l-4.189,41.576c-0.211,2.099-0.67,4.019-1.375,5.757
			c-0.705,1.74-1.781,3.222-3.23,4.444c-1.447,1.225-3.326,2.116-5.635,2.678c-2.309,0.563-5.168,0.672-8.578,0.329
			c-2.799-0.282-5.055-0.688-6.768-1.213c-1.715-0.526-3.129-1.176-4.242-1.95c-1.113-0.775-1.969-1.723-2.561-2.843
			c-0.596-1.12-1.176-2.37-1.742-3.752c-0.699-1.836-0.898-4.241-0.598-7.214c0.299-2.972,0.621-6.164,0.965-9.574l4.229-41.969
			c0.176-1.749,0.396-3.736,0.666-5.96c0.268-2.227,0.555-4.404,0.859-6.539c0.301-2.133,0.627-4.064,0.98-5.797
			c0.35-1.73,0.707-3.063,1.066-3.999c1.4-3.391,3.627-5.994,6.682-7.807c3.051-1.812,6.459-2.529,10.219-2.15
			c2.971,0.3,5.535,0.957,7.686,1.968c2.148,1.012,3.898,2.271,5.25,3.775c1.35,1.506,2.281,3.19,2.803,5.052
			c0.518,1.863,0.672,3.843,0.461,5.941l-1.059,10.493l-9.836-0.991l1.045-10.361c0.414-4.109,0.102-6.923-0.938-8.442
			c-1.039-1.516-2.959-2.417-5.756-2.699c-2.1-0.211-3.719,0.089-4.861,0.901c-1.141,0.813-1.988,1.985-2.541,3.519
			c-0.551,1.535-0.914,3.375-1.086,5.521c-0.172,2.148-0.381,4.446-0.629,6.892l-5.482,54.429c-0.266,2.623-0.539,5.113-0.82,7.469
			c-0.283,2.355-0.313,4.429-0.096,6.216c0.217,1.79,0.799,3.24,1.746,4.349c0.949,1.113,2.559,1.782,4.832,2.012
			c2.797,0.281,4.781-0.115,5.949-1.189c1.17-1.075,1.934-3.404,2.295-6.989l3.82-37.903l-9.051-0.912L564.83,198.042z"/>
	</g>
	<g>
		<linearGradient id="SVGID_15_" gradientUnits="userSpaceOnUse" x1="598.5889" y1="257.623" x2="598.5889" y2="158.25">
			<stop  offset="0" style="stop-color:#48ACE1"/>
			<stop  offset="0.0402" style="stop-color:#59B4E4"/>
			<stop  offset="0.1542" style="stop-color:#85C8EB"/>
			<stop  offset="0.2736" style="stop-color:#ABD9F1"/>
			<stop  offset="0.397" style="stop-color:#C9E7F6"/>
			<stop  offset="0.526" style="stop-color:#E1F1FA"/>
			<stop  offset="0.6627" style="stop-color:#F2F9FD"/>
			<stop  offset="0.8124" style="stop-color:#FCFEFE"/>
			<stop  offset="1" style="stop-color:#FFFFFF"/>
		</linearGradient>
		<path fill="url(#SVGID_15_)" d="M599.293,158.25l10.08,1.179l-11.488,98.194l-10.08-1.18L599.293,158.25z"/>
	</g>
	<g>
		<linearGradient id="SVGID_16_" gradientUnits="userSpaceOnUse" x1="631.8184" y1="263.1719" x2="631.8184" y2="160.9053">
			<stop  offset="0" style="stop-color:#48ACE1"/>
			<stop  offset="0.0402" style="stop-color:#59B4E4"/>
			<stop  offset="0.1542" style="stop-color:#85C8EB"/>
			<stop  offset="0.2736" style="stop-color:#ABD9F1"/>
			<stop  offset="0.397" style="stop-color:#C9E7F6"/>
			<stop  offset="0.526" style="stop-color:#E1F1FA"/>
			<stop  offset="0.6627" style="stop-color:#F2F9FD"/>
			<stop  offset="0.8124" style="stop-color:#FCFEFE"/>
			<stop  offset="1" style="stop-color:#FFFFFF"/>
		</linearGradient>
		<path fill="url(#SVGID_16_)" d="M655.795,165.578l-13.07,97.594l-4.965-0.665l-15.445-73.354l-9.379,70.03l-5.094-0.684
			l13.07-97.595l5.096,0.682l15.4,72.682l9.293-69.376L655.795,165.578z"/>
	</g>
	<g>
		<linearGradient id="SVGID_17_" gradientUnits="userSpaceOnUse" x1="670.8838" y1="268.3477" x2="670.8838" y2="166.9854">
			<stop  offset="0" style="stop-color:#48ACE1"/>
			<stop  offset="0.0402" style="stop-color:#59B4E4"/>
			<stop  offset="0.1542" style="stop-color:#85C8EB"/>
			<stop  offset="0.2736" style="stop-color:#ABD9F1"/>
			<stop  offset="0.397" style="stop-color:#C9E7F6"/>
			<stop  offset="0.526" style="stop-color:#E1F1FA"/>
			<stop  offset="0.6627" style="stop-color:#F2F9FD"/>
			<stop  offset="0.8124" style="stop-color:#FCFEFE"/>
			<stop  offset="1" style="stop-color:#FFFFFF"/>
		</linearGradient>
		<path fill="url(#SVGID_17_)" d="M665.199,166.985l26.313,4.077l-0.787,5.08l-16.152-2.501l-5.852,37.776l14.98,2.32l-0.768,4.95
			l-14.98-2.321l-6.771,44.57l15.893,2.462l-0.766,4.95l-26.053-4.036L665.199,166.985z"/>
	</g>
	<g>
		<linearGradient id="SVGID_18_" gradientUnits="userSpaceOnUse" x1="703.3008" y1="273.7715" x2="703.3008" y2="172.2251">
			<stop  offset="0" style="stop-color:#48ACE1"/>
			<stop  offset="0.0402" style="stop-color:#59B4E4"/>
			<stop  offset="0.1542" style="stop-color:#85C8EB"/>
			<stop  offset="0.2736" style="stop-color:#ABD9F1"/>
			<stop  offset="0.397" style="stop-color:#C9E7F6"/>
			<stop  offset="0.526" style="stop-color:#E1F1FA"/>
			<stop  offset="0.6627" style="stop-color:#F2F9FD"/>
			<stop  offset="0.8124" style="stop-color:#FCFEFE"/>
			<stop  offset="1" style="stop-color:#FFFFFF"/>
		</linearGradient>
		<path fill="url(#SVGID_18_)" d="M698.539,172.225l26.234,4.553l-0.879,5.065l-16.105-2.795l-6.537,37.664l14.936,2.592
			l-0.857,4.935l-14.936-2.593l-7.578,44.439l15.844,2.75l-0.857,4.936l-25.975-4.508L698.539,172.225z"/>
	</g>
	<g>
		<linearGradient id="SVGID_19_" gradientUnits="userSpaceOnUse" x1="739.8408" y1="281.8701" x2="739.8408" y2="178.3247">
			<stop  offset="0" style="stop-color:#48ACE1"/>
			<stop  offset="0.0402" style="stop-color:#59B4E4"/>
			<stop  offset="0.1542" style="stop-color:#85C8EB"/>
			<stop  offset="0.2736" style="stop-color:#ABD9F1"/>
			<stop  offset="0.397" style="stop-color:#C9E7F6"/>
			<stop  offset="0.526" style="stop-color:#E1F1FA"/>
			<stop  offset="0.6627" style="stop-color:#F2F9FD"/>
			<stop  offset="0.8124" style="stop-color:#FCFEFE"/>
			<stop  offset="1" style="stop-color:#FFFFFF"/>
		</linearGradient>
		<path fill="url(#SVGID_19_)" d="M760.27,219.773c-1.551,6.949-6.902,10.239-16.053,9.866c0.105,1.276,0.283,2.991,0.531,5.142
			c0.246,2.155,0.512,4.558,0.793,7.211c0.283,2.654,0.574,5.487,0.877,8.501c0.301,3.015,0.609,5.988,0.93,8.917
			c0.689,6.944,1.406,14.431,2.154,22.459l-9.83-1.938l-4.121-52.002l-1.033-0.205l-1.301,6.597l-8.416,42.677l-9.959-1.964
			l19.209-96.71l17.588,3.469c1.551,0.306,3.195,0.832,4.928,1.577c1.734,0.745,3.279,1.768,4.637,3.063
			c1.355,1.298,2.377,2.934,3.063,4.904c0.686,1.972,0.758,4.337,0.213,7.095L760.27,219.773z M735.643,222.708l7.758,1.53
			c1.379,0.271,2.535,0.097,3.463-0.525c0.93-0.624,1.66-1.375,2.191-2.256c0.549-0.967,1.01-2.173,1.387-3.623l0.893-4.526
			c0.271-1.378,0.611-2.991,1.021-4.837c0.408-1.845,0.809-3.758,1.199-5.742c0.426-2.154,0.826-4.181,1.199-6.078
			c0.373-1.896,0.541-3.542,0.504-4.939c-0.041-1.396-0.369-2.559-0.992-3.487c-0.623-0.929-1.709-1.547-3.262-1.854l-7.889-1.556
			L735.643,222.708z"/>
	</g>
	<g>
		<linearGradient id="SVGID_20_" gradientUnits="userSpaceOnUse" x1="800.457" y1="336.9058" x2="800.457" y2="149.3145">
			<stop  offset="0" style="stop-color:#48ACE1"/>
			<stop  offset="0.0402" style="stop-color:#59B4E4"/>
			<stop  offset="0.1542" style="stop-color:#85C8EB"/>
			<stop  offset="0.2736" style="stop-color:#ABD9F1"/>
			<stop  offset="0.397" style="stop-color:#C9E7F6"/>
			<stop  offset="0.526" style="stop-color:#E1F1FA"/>
			<stop  offset="0.6627" style="stop-color:#F2F9FD"/>
			<stop  offset="0.8124" style="stop-color:#FCFEFE"/>
			<stop  offset="1" style="stop-color:#FFFFFF"/>
		</linearGradient>
		<path fill="url(#SVGID_20_)" d="M829.045,181.185c1.619-6.894,1.717-11.993,0.295-15.291c-1.428-3.295-4.705-5.55-9.838-6.757
			c-4.973-1.169-8.811-0.504-11.51,1.99c-2.709,2.499-4.83,7.033-6.375,13.607l-5.545,23.579c-0.982,4.171-1.467,7.316-1.457,9.433
			c0.01,2.121,0.18,3.557,0.512,4.31c1.32,3.019,2.598,5.858,3.836,8.519c1.234,2.663,2.5,5.373,3.801,8.129
			c1.295,2.761,2.686,5.67,4.168,8.725c1.479,3.057,3.146,6.412,4.998,10.06c2.668,5.2,4.85,9.608,6.539,13.218
			c1.689,3.614,2.963,6.834,3.822,9.658c0.859,2.828,1.324,5.517,1.402,8.074c0.074,2.556-0.133,5.427-0.627,8.612
			c-0.496,3.184-1.244,6.903-2.244,11.15c-0.998,4.252-2.215,9.425-3.648,15.518c-1.357,5.775-3.283,10.36-5.771,13.75
			c-2.492,3.395-5.396,5.842-8.709,7.347c-3.318,1.505-7.035,2.194-11.152,2.075c-4.121-0.124-8.424-0.713-12.914-1.768
			c-9.141-2.149-16.176-6.256-21.096-12.324c-4.922-6.064-6.307-13.67-4.156-22.813l6.619-28.15l18.045,4.244l-6.506,27.669
			c-1.02,4.331-1.502,7.815-1.443,10.451c0.053,2.64,0.525,4.781,1.41,6.425c0.881,1.647,2.117,2.871,3.707,3.665
			c1.59,0.799,3.426,1.44,5.514,1.932c2.244,0.527,4.295,0.8,6.156,0.813c1.857,0.016,3.508-0.528,4.953-1.628
			c1.439-1.098,2.744-2.865,3.912-5.302c1.162-2.431,2.236-5.733,3.217-9.907l6.564-27.908c0.641-2.725-0.105-6.752-2.238-12.078
			c-2.135-5.326-4.701-10.965-7.701-16.917c-3.004-5.951-6.072-11.795-9.207-17.526c-3.141-5.729-5.33-10.267-6.576-13.606
			c-0.623-1.67-1.275-3.22-1.953-4.649c-0.68-1.429-1.137-3.27-1.367-5.526c-0.232-2.252-0.172-5.201,0.176-8.845
			c0.348-3.639,1.238-8.507,2.672-14.604l4.301-18.287c0.791-3.368,2.213-6.544,4.273-9.531c2.055-2.984,4.697-5.409,7.932-7.275
			c3.229-1.864,7.037-3.126,11.426-3.788c4.385-0.659,9.229-0.369,14.52,0.875c10.264,2.414,17.676,6.357,22.229,11.829
			c4.553,5.473,5.66,13.18,3.322,23.124l-4.527,19.247l-18.283-4.299L829.045,181.185z"/>
	</g>
</g>
</svg>
